<svg width="18" height="18" viewBox="0 0 18 18" fill="none" xmlns="http://www.w3.org/2000/svg">
<path d="M6.33333 16.3327C7.06971 16.3327 7.66667 15.7357 7.66667 14.9993C7.66667 14.263 7.06971 13.666 6.33333 13.666C5.59695 13.666 5 14.263 5 14.9993C5 15.7357 5.59695 16.3327 6.33333 16.3327Z" stroke="white" stroke-width="1.8" stroke-linecap="round" stroke-linejoin="round"/>
<path d="M14.3333 16.3327C15.0697 16.3327 15.6667 15.7357 15.6667 14.9993C15.6667 14.263 15.0697 13.666 14.3333 13.666C13.597 13.666 13 14.263 13 14.9993C13 15.7357 13.597 16.3327 14.3333 16.3327Z" stroke="white" stroke-width="1.8" stroke-linecap="round" stroke-linejoin="round"/>
<path d="M4.77935 4.99935H16.3327L15.2127 10.5927C15.1517 10.8996 14.9847 11.1753 14.741 11.3715C14.4972 11.5678 14.1922 11.672 13.8793 11.666H6.83268C6.50714 11.6688 6.19183 11.5523 5.94622 11.3387C5.70061 11.125 5.54166 10.8288 5.49935 10.506L4.48602 2.82602C4.44399 2.50551 4.28696 2.21118 4.04415 1.99779C3.80133 1.78441 3.48927 1.66651 3.16602 1.66602H1.66602" stroke="white" stroke-width="1.8" stroke-linecap="round" stroke-linejoin="round"/>
</svg>
